<svg xmlns="http://www.w3.org/2000/svg" viewBox="0 0 64 64" role="img" aria-label="WhatsApp">
  <circle cx="32" cy="32" r="24" fill="#ffffff"/>
  <path d="M32 17c-8.2 0-14.8 6.4-14.8 14.3 0 3 1 5.8 2.8 8l-2.4 7.5 7.8-2.3c2.1 1.1 4.4 1.7 6.8 1.7 8.2 0 14.8-6.4 14.8-14.3S40.2 17 32 17Z" fill="none" stroke="#111111" stroke-width="3"/>
  <path d="M27.5 27.4c.6-1.3 1.2-1.4 1.9-1.4h.5c.2 0 .5.1.7.6.3.7 1.1 2.5 1.2 2.6.1.2.2.5 0 .8-.2.3-.3.5-.6.7-.3.3-.5.5-.7.7-.2.2-.4.4-.2.8.2.4.9 1.5 2 2.5 1.4 1.2 2.6 1.7 3 1.9.4.2.7.1.9-.1.3-.3 1.1-1.2 1.4-1.6.3-.4.5-.3.8-.2.3.1 2.1 1 2.5 1.2.4.2.6.3.7.5.1.2.1 1.1-.5 2.1-.6 1-3.4 2-4.7 2-1.3 0-2.4-.2-4.1-.9-2.3-1-3.9-2.4-5.3-3.8-1.4-1.5-2.5-3.4-2.9-4.8-.4-1.4 0-3.1.5-4.2Z" fill="#111111"/>
</svg>